# xmcd
#
# Track frame offsets:
#	150
#	11862
#	26227
#	41904
#	52547
#	72179
#	90915
#	102359
#	113059
#	125948
#	137101
#	150922
#	165950
#	178397
#	187381
#	204779
#	219974
#	234005
#	247051
#	263092
#	280140
#
# Disc length: 3862 seconds
#
# Revision: 1
# Processed by: cddbd v1.5.1PL0 Copyright (c) Steve Scherf et al.
# Submitted via: CDex 1.50Beta5
#
DISCID=220f1415
DTITLE=BIG HOUSE - PUNKER SHOT 3 Disc 1
DYEAR=2001
DGENRE=Rock
TTITLE0=BIG HOUSE/SAMURAI
TTITLE1=ASIAN HAND/HOME GO THE NAME,THE
TTITLE2=OXYDOL/HEAT
TTITLE3=DONUT MAN/I DON’T CARE
TTITLE4=BOMB SHOP/TURN AROUND
TTITLE5=ネコヘッド/WHAT IS LOVE?
TTITLE6=nEWRINS/THIRST EARTH,THE
TTITLE7=FLAG・SHIP/I’M ALWAYS ON YOUR SIDE
TTITLE8=MINX/FOR THE SUMMER
TTITLE9=憩/OVER THE WALK
TTITLE10=FIRST SOUP/MAKE A WISH
TTITLE11=マキシマム・ザ・ホルモン/マキシマム・ザ・21世紀
TTITLE12=HEEL AND TOE/木枯しでぶっ飛ばせ
TTITLE13=UNDER ARREST/frustration
TTITLE14=BOOCUSS/KEEP A WAY
TTITLE15=OVER THROW/TIME GOES BY
TTITLE16=MUSTARD PLUG/Everything Girl
TTITLE17=NICOTINE/AQUARIOUS
TTITLE18=NOBODY-176/ラストスパート
TTITLE19=LIDLESS TOYBOX/Too Late to be Sorry
TTITLE20=GORILLA ATTACK/CROCODILE
EXTD=
EXTT0=
EXTT1=
EXTT2=
EXTT3=
EXTT4=
EXTT5=
EXTT6=
EXTT7=
EXTT8=
EXTT9=
EXTT10=
EXTT11=
EXTT12=
EXTT13=
EXTT14=
EXTT15=
EXTT16=
EXTT17=
EXTT18=
EXTT19=
EXTT20=
PLAYORDER=
